# xmcd CD database file
#
# Track frame offsets:
#	150
#	13856
#	35175
#	60801
#	73033
#	92403
#	107295
#	124741
#	138767
#	152373
#	169275
#	186820
#	206365
#	224102
#	246890
#	259644
#
# Disc length: 3804 seconds
#
# Revision: 0
# Processed by: cddbd v1.5.2PL0 Copyright (c) Steve Scherf et al.
# Submitted via: CDex 1.70beta2
#
DISCID=d80eda10
DTITLE=Various Artist - Gympie Muster 2009 Country - CD 4
DYEAR=2009
DGENRE=Country
TTITLE0=Kasey Chambers - Your Day Will Com 
TTITLE1=Shannon Noll - Lonely 
TTITLE2=Evermore - Can You Hear Me? 
TTITLE3=Kisschasy - Generation Why 
TTITLE4=Felicity Urquhart - Roller Coaster 
TTITLE5=Shane Nicholson - Summer Dress 
TTITLE6=Andy Cowan - Motherless Child 
TTITLE7=Sam Hawksley - Sounds Like Summer 
TTITLE8=The Wilson Pickers - Little Old Man 
TTITLE9=Roz Pappalardo and The Wayward - I Say Fall 1
TTITLE10=Danny Widdicombe - My Desires 1
TTITLE11=Matt Joe Gow and The Deadleaves 1
TTITLE12=Sara Tindley - Paulies Last Ride 1
TTITLE13=The Famous Jimmies - Rakes of Kildare 1
TTITLE14=Murphy’s Pigs - The Rare Old Mountain 1
TTITLE15=Steve Apirana Band – Postscript 
EXTD=YEAR: 2009
EXTT0=
EXTT1=
EXTT2=
EXTT3=
EXTT4=
EXTT5=
EXTT6=
EXTT7=
EXTT8=
EXTT9=
EXTT10=
EXTT11=
EXTT12=
EXTT13=
EXTT14=
EXTT15=
PLAYORDER=
